<?xml version="1.0" standalone="no"?>
<!DOCTYPE svg PUBLIC "-//W3C//DTD SVG 20010904//EN"
 "http://www.w3.org/TR/2001/REC-SVG-20010904/DTD/svg10.dtd">
<svg version="1.0" xmlns="http://www.w3.org/2000/svg"
 width="512.000000pt" height="512.000000pt" viewBox="0 0 512.000000 512.000000"
 preserveAspectRatio="xMidYMid meet">

<g transform="translate(0.000000,512.000000) scale(0.100000,-0.100000)"
fill="#faebd7" stroke="none">
<path d="M2285 4739 c-298 -38 -607 -146 -865 -303 -577 -352 -959 -946 -1040
-1616 -13 -109 -13 -411 0 -520 61 -502 296 -974 658 -1321 345 -331 787 -541
1262 -599 121 -14 427 -12 550 4 321 44 642 162 905 333 546 357 907 937 985
1583 13 109 13 411 0 520 -58 475 -267 917 -599 1263 -343 357 -796 586 -1291
653 -116 15 -451 17 -565 3z m562 -935 c80 -65 78 -51 81 -486 l3 -387 387 -3
c435 -3 421 -1 486 -81 l31 -39 3 -233 c3 -251 1 -266 -52 -323 -51 -57 -49
-57 -468 -60 l-387 -3 -3 -387 c-3 -419 -3 -417 -60 -468 -57 -53 -72 -55
-323 -52 l-233 3 -39 31 c-80 65 -78 51 -81 486 l-3 387 -387 3 c-435 3 -421
1 -486 81 l-31 39 0 248 0 248 31 39 c65 80 51 78 486 81 l387 3 3 387 c3 419
3 416 60 469 56 52 66 54 320 51 l236 -3 39 -31z"/>
</g>
</svg>
