<?xml version="1.0" encoding="iso-8859-1"?>
<!-- Generator: Adobe Illustrator 19.0.0, SVG Export Plug-In . SVG Version: 6.00 Build 0)  -->
<svg version="1.1" id="Layer_1" xmlns="http://www.w3.org/2000/svg" xmlns:xlink="http://www.w3.org/1999/xlink" x="0px" y="0px"
	 viewBox="0 0 512 512" style="enable-background:new 0 0 512 512;" xml:space="preserve">
<g>
	<g fill="#343a40" stroke="none">
		<path d="M256.002,0c-38.194,0-69.268,31.074-69.268,69.268s31.072,69.268,69.268,69.268s69.268-31.074,69.268-69.268
			S294.196,0,256.002,0z"/>
	</g>
</g>
<g>
	<g fill="#343a40" stroke="none">
		<path d="M486.893,373.464h-70.883l-40.682-75.391c-3.196-63.048-55.497-113.358-119.327-113.358s-116.132,50.31-119.329,113.358
			l-40.682,75.391H25.107c-12.752,0-23.089,10.336-23.089,23.089v92.357c0,12.75,10.338,23.089,23.089,23.089h169.322
			c12.751,0,23.089-10.339,23.089-23.089v-92.357c0-12.753-10.338-23.089-23.089-23.089h-45.963l24.918-46.179h165.233
			l24.918,46.179h-45.963c-12.751,0-23.089,10.336-23.089,23.089v92.357c0,12.75,10.338,23.089,23.089,23.089h169.322
			c12.751,0,23.089-10.339,23.089-23.089v-92.357C509.983,383.8,499.645,373.464,486.893,373.464z"/>
	</g>
</g>
<g>
</g>
<g>
</g>
<g>
</g>
<g>
</g>
<g>
</g>
<g>
</g>
<g>
</g>
<g>
</g>
<g>
</g>
<g>
</g>
<g>
</g>
<g>
</g>
<g>
</g>
<g>
</g>
<g>
</g>
</svg>
