<?xml version="1.0" standalone="no"?>
<!DOCTYPE svg PUBLIC "-//W3C//DTD SVG 20010904//EN"
 "http://www.w3.org/TR/2001/REC-SVG-20010904/DTD/svg10.dtd">
<svg version="1.0" xmlns="http://www.w3.org/2000/svg"
 width="820.000000pt" height="823.000000pt" viewBox="0 0 820.000000 823.000000"
 preserveAspectRatio="xMidYMid meet">

<g transform="translate(0.000000,823.000000) scale(0.100000,-0.100000)"
fill="#faebd7" stroke="none">
<path d="M3327 8215 c-434 -59 -828 -255 -1156 -578 -314 -308 -517 -686 -598
-1112 -13 -69 -17 -143 -17 -315 0 -237 10 -321 59 -517 92 -365 360 -759 680
-999 263 -198 607 -348 913 -399 150 -25 406 -17 552 18 336 80 673 279 960
567 331 330 538 726 591 1125 17 129 6 413 -20 535 -68 317 -209 631 -398 887
-243 330 -609 596 -1012 734 -174 60 -369 78 -554 54z"/>
<path d="M5734 4211 c-33 -6 -42 -20 -75 -119 -52 -157 -118 -324 -144 -364
-53 -80 -158 -100 -256 -50 -30 15 -144 92 -253 171 -167 121 -200 142 -210
130 -105 -141 -586 -799 -586 -802 0 -3 52 -67 115 -144 148 -177 185 -231
192 -280 4 -34 1 -45 -26 -76 -37 -42 -57 -49 -306 -111 -118 -30 -184 -51
-192 -63 -19 -24 -19 -762 0 -786 6 -9 51 -28 99 -42 124 -35 303 -102 370
-137 39 -21 62 -40 72 -63 21 -43 20 -58 -3 -103 -18 -34 -221 -242 -300 -306
-41 -33 -50 -15 95 -202 60 -77 195 -251 299 -387 105 -135 195 -247 200 -247
6 0 92 48 190 106 377 223 392 229 471 199 78 -30 99 -77 162 -360 l38 -170
406 -3 406 -2 7 62 c10 93 41 246 65 329 26 86 67 134 124 145 78 14 160 -32
340 -191 l109 -96 31 29 c170 157 786 756 784 762 -2 3 -34 33 -73 65 -174
144 -255 240 -255 302 0 103 84 157 365 238 88 25 170 50 183 55 l22 10 0 388
c0 295 -3 392 -12 404 -7 9 -33 22 -58 28 -130 33 -396 113 -424 126 -86 44
-100 104 -45 187 38 58 148 165 254 249 43 35 79 67 78 71 0 5 -135 189 -299
409 -165 220 -302 405 -306 411 -3 6 -68 -36 -155 -100 -322 -238 -408 -282
-471 -238 -39 28 -81 101 -141 247 -87 212 -88 214 -121 252 -55 62 -78 65
-431 68 -174 2 -324 1 -335 -1z m481 -1041 c195 -28 370 -101 522 -219 183
-141 312 -339 375 -577 20 -78 23 -111 22 -264 -1 -155 -4 -186 -26 -271 -104
-388 -403 -676 -787 -759 -184 -40 -354 -34 -530 16 -360 105 -634 385 -731
749 -28 103 -38 309 -20 426 83 571 615 978 1175 899z"/>
<path d="M2140 3839 c-168 -4 -359 -12 -425 -19 -395 -38 -675 -157 -900 -384
-210 -211 -283 -372 -560 -1221 -142 -438 -230 -734 -247 -834 -27 -157 33
-226 262 -299 206 -65 400 -91 1165 -157 226 -19 464 -39 530 -45 836 -72
1075 -85 1342 -70 257 15 312 31 350 104 22 42 13 149 -31 376 -54 275 -66
388 -66 598 0 270 33 491 112 747 70 229 140 386 307 684 49 88 106 201 126
252 82 203 38 254 -230 264 -208 9 -1430 11 -1735 4z"/>
</g>
</svg>
