<svg xmlns="http://www.w3.org/2000/svg" xmlns:xlink="http://www.w3.org/1999/xlink" enable-background="new 0 0 32 32" height="32" version="1.1" width="32" xml:space="preserve" style=""><rect id="backgroundrect" width="100%" height="100%" x="0" y="0" fill="none" stroke="none"/><g class="currentLayer" style=""><title>Layer 1</title><g id="Cancel" class="" fill="#eb1a1a" fill-opacity="1"><path clip-rule="evenodd" d="M16,0C7.163,0,0,7.163,0,16c0,8.836,7.163,16,16,16   c8.836,0,16-7.163,16-16C32,7.163,24.836,0,16,0z M16,30C8.268,30,2,23.732,2,16C2,8.268,8.268,2,16,2s14,6.268,14,14   C30,23.732,23.732,30,16,30z" fill="#eb1a1a" fill-rule="evenodd" id="svg_1" fill-opacity="1"/><path clip-rule="evenodd" d="M22.729,21.271l-5.268-5.269l5.238-5.195   c0.395-0.391,0.395-1.024,0-1.414c-0.394-0.39-1.034-0.39-1.428,0l-5.231,5.188l-5.309-5.31c-0.394-0.396-1.034-0.396-1.428,0   c-0.394,0.395-0.394,1.037,0,1.432l5.301,5.302l-5.331,5.287c-0.394,0.391-0.394,1.024,0,1.414c0.394,0.391,1.034,0.391,1.429,0   l5.324-5.28l5.276,5.276c0.394,0.396,1.034,0.396,1.428,0C23.123,22.308,23.123,21.667,22.729,21.271z" fill="#eb1a1a" fill-rule="evenodd" id="svg_2" fill-opacity="1"/></g><g id="svg_3"/><g id="svg_4"/><g id="svg_5"/><g id="svg_6"/><g id="svg_7"/><g id="svg_8"/></g></svg>